REM DIRINDEX 1\2,1\3
REM DIRNAME folder01,folder02,folder03
TITLE ""
FILE "sample sentencesTrack18.mp3" MP3
  TRACK 01 AUDIO
    TITLE "3:cjc143_2991"
    INDEX 01 00:00:00
  TRACK 02 AUDIO
    TITLE "0:"
    INDEX 01 00:01:01
  TRACK 03 AUDIO
    TITLE "3:cjc143_2992"
    INDEX 01 00:01:48
  TRACK 04 AUDIO
    TITLE "0:"
    INDEX 01 00:04:13
  TRACK 05 AUDIO
    TITLE "3:cjc143_2993"
    INDEX 01 00:05:20
  TRACK 06 AUDIO
    TITLE "0:"
    INDEX 01 00:08:28
  TRACK 07 AUDIO
    TITLE "3:cjc143_2994"
    INDEX 01 00:09:34
  TRACK 08 AUDIO
    TITLE "0:"
    INDEX 01 00:12:40
  TRACK 09 AUDIO
    TITLE "3:cjc143_2995"
    INDEX 01 00:13:69
  TRACK 10 AUDIO
    TITLE "0:"
    INDEX 01 00:16:38
  TRACK 11 AUDIO
    TITLE "3:cjc143_2996"
    INDEX 01 00:17:47
  TRACK 12 AUDIO
    TITLE "0:"
    INDEX 01 00:20:12
  TRACK 13 AUDIO
    TITLE "3:cjc143_2997"
    INDEX 01 00:21:25
  TRACK 14 AUDIO
    TITLE "0:"
    INDEX 01 00:24:02
  TRACK 15 AUDIO
    TITLE "3:cjc143_2998"
    INDEX 01 00:25:19
  TRACK 16 AUDIO
    TITLE "0:"
    INDEX 01 00:28:00
  TRACK 17 AUDIO
    TITLE "3:cjc143_2999"
    INDEX 01 00:29:11
  TRACK 18 AUDIO
    TITLE "0:"
    INDEX 01 00:32:72
  TRACK 19 AUDIO
    TITLE "3:cjc143_3000"
    INDEX 01 00:34:02
  TRACK 20 AUDIO
    TITLE "0:"
    INDEX 01 00:36:52
  TRACK 21 AUDIO
    TITLE "3:cjc143_3001"
    INDEX 01 00:37:61
  TRACK 22 AUDIO
    TITLE "0:"
    INDEX 01 00:40:62
  TRACK 23 AUDIO
    TITLE "3:cjc143_3002"
    INDEX 01 00:42:00
  TRACK 24 AUDIO
    TITLE "0:"
    INDEX 01 00:45:20
  TRACK 25 AUDIO
    TITLE "3:cjc143_3003"
    INDEX 01 00:46:25
  TRACK 26 AUDIO
    TITLE "0:"
    INDEX 01 00:50:11
  TRACK 27 AUDIO
    TITLE "3:cjc143_3004"
    INDEX 01 00:51:20
  TRACK 28 AUDIO
    TITLE "0:"
    INDEX 01 00:54:05
  TRACK 29 AUDIO
    TITLE "3:cjc143_3005"
    INDEX 01 00:55:14
  TRACK 30 AUDIO
    TITLE "0:"
    INDEX 01 00:58:01
  TRACK 31 AUDIO
    TITLE "3:cjc143_3006"
    INDEX 01 00:59:10
  TRACK 32 AUDIO
    TITLE "0:"
    INDEX 01 01:02:06
  TRACK 33 AUDIO
    TITLE "3:cjc143_3007"
    INDEX 01 01:03:20
  TRACK 34 AUDIO
    TITLE "0:"
    INDEX 01 01:07:47
  TRACK 35 AUDIO
    TITLE "3:cjc143_3008"
    INDEX 01 01:08:56
  TRACK 36 AUDIO
    TITLE "0:"
    INDEX 01 01:10:47
  TRACK 37 AUDIO
    TITLE "3:cjc143_3009"
    INDEX 01 01:11:56
  TRACK 38 AUDIO
    TITLE "0:"
    INDEX 01 01:14:51
  TRACK 39 AUDIO
    TITLE "3:cjc143_3010"
    INDEX 01 01:15:56
  TRACK 40 AUDIO
    TITLE "0:"
    INDEX 01 01:18:15
  TRACK 41 AUDIO
    TITLE "3:cjc143_3011"
    INDEX 01 01:19:23
  TRACK 42 AUDIO
    TITLE "0:"
    INDEX 01 01:21:70
  TRACK 43 AUDIO
    TITLE "3:cjc143_3012"
    INDEX 01 01:23:05
  TRACK 44 AUDIO
    TITLE "0:"
    INDEX 01 01:25:02
  TRACK 45 AUDIO
    TITLE "3:cjc143_3013"
    INDEX 01 01:26:13
  TRACK 46 AUDIO
    TITLE "0:"
    INDEX 01 01:28:10
  TRACK 47 AUDIO
    TITLE "3:cjc143_3014"
    INDEX 01 01:29:27
  TRACK 48 AUDIO
    TITLE "0:"
    INDEX 01 01:32:23
  TRACK 49 AUDIO
    TITLE "3:cjc143_3015"
    INDEX 01 01:33:34
  TRACK 50 AUDIO
    TITLE "0:"
    INDEX 01 01:37:36
  TRACK 51 AUDIO
    TITLE "3:cjc143_3016"
    INDEX 01 01:38:47
  TRACK 52 AUDIO
    TITLE "0:"
    INDEX 01 01:41:26
  TRACK 53 AUDIO
    TITLE "3:cjc143_3017"
    INDEX 01 01:42:35
  TRACK 54 AUDIO
    TITLE "0:"
    INDEX 01 01:45:18
  TRACK 55 AUDIO
    TITLE "3:cjc143_3018"
    INDEX 01 01:46:25
  TRACK 56 AUDIO
    TITLE "0:"
    INDEX 01 01:48:42
  TRACK 57 AUDIO
    TITLE "3:cjc143_3019"
    INDEX 01 01:49:49
  TRACK 58 AUDIO
    TITLE "0:"
    INDEX 01 01:52:69
  TRACK 59 AUDIO
    TITLE "3:cjc143_3020"
    INDEX 01 01:54:01
  TRACK 60 AUDIO
    TITLE "0:"
    INDEX 01 01:56:37
  TRACK 61 AUDIO
    TITLE "3:cjc143_3021"
    INDEX 01 01:57:47
  TRACK 62 AUDIO
    TITLE "0:"
    INDEX 01 02:01:17
  TRACK 63 AUDIO
    TITLE "3:cjc143_3022"
    INDEX 01 02:02:24
  TRACK 64 AUDIO
    TITLE "0:"
    INDEX 01 02:05:03
  TRACK 65 AUDIO
    TITLE "3:cjc143_3023"
    INDEX 01 02:06:14
  TRACK 66 AUDIO
    TITLE "0:"
    INDEX 01 02:09:26
  TRACK 67 AUDIO
    TITLE "3:cjc143_3024"
    INDEX 01 02:10:38
  TRACK 68 AUDIO
    TITLE "0:"
    INDEX 01 02:12:72
  TRACK 69 AUDIO
    TITLE "3:cjc143_3025"
    INDEX 01 02:14:10
  TRACK 70 AUDIO
    TITLE "0:"
    INDEX 01 02:17:00
